<mxfile host="app.diagrams.net" modified="2023-07-26T01:12:33.872Z" agent="Mozilla/5.0 (Windows NT 10.0; Win64; x64) AppleWebKit/537.36 (KHTML, like Gecko) Chrome/113.0.0.0 Safari/537.36 OPR/99.0.0.0" etag="bFMBnEcF5mB3R57lA00L" version="21.6.5" type="device">
  <diagram name="Page-1" id="KFWyNAkvFDyuqFReLJ0U">
    <mxGraphModel dx="2688" dy="534" grid="1" gridSize="10" guides="1" tooltips="1" connect="1" arrows="1" fold="1" page="1" pageScale="1" pageWidth="850" pageHeight="1100" math="0" shadow="0">
      <root>
        <mxCell id="0" />
        <mxCell id="1" parent="0" />
        <mxCell id="EikRMOJNgaciuxQQeeB3-3" style="edgeStyle=orthogonalEdgeStyle;rounded=0;orthogonalLoop=1;jettySize=auto;html=1;entryX=0.5;entryY=0;entryDx=0;entryDy=0;" edge="1" parent="1" source="EikRMOJNgaciuxQQeeB3-1" target="EikRMOJNgaciuxQQeeB3-2">
          <mxGeometry relative="1" as="geometry" />
        </mxCell>
        <mxCell id="EikRMOJNgaciuxQQeeB3-1" value="&lt;font style=&quot;font-size: 18px;&quot;&gt;Start&lt;/font&gt;" style="ellipse;whiteSpace=wrap;html=1;aspect=fixed;fillColor=#16aa0e;strokeColor=#82b366;" vertex="1" parent="1">
          <mxGeometry x="610" y="510" width="80" height="80" as="geometry" />
        </mxCell>
        <mxCell id="EikRMOJNgaciuxQQeeB3-8" style="edgeStyle=orthogonalEdgeStyle;rounded=0;orthogonalLoop=1;jettySize=auto;html=1;entryX=1;entryY=0.5;entryDx=0;entryDy=0;" edge="1" parent="1" source="EikRMOJNgaciuxQQeeB3-2" target="EikRMOJNgaciuxQQeeB3-4">
          <mxGeometry relative="1" as="geometry" />
        </mxCell>
        <mxCell id="EikRMOJNgaciuxQQeeB3-2" value="&lt;font style=&quot;font-size: 18px;&quot;&gt;Install the Application&lt;/font&gt;" style="rounded=1;whiteSpace=wrap;html=1;fillColor=#dae8fc;strokeColor=#6c8ebf;" vertex="1" parent="1">
          <mxGeometry x="540" y="670" width="220" height="60" as="geometry" />
        </mxCell>
        <mxCell id="EikRMOJNgaciuxQQeeB3-10" style="edgeStyle=orthogonalEdgeStyle;rounded=0;orthogonalLoop=1;jettySize=auto;html=1;" edge="1" parent="1" source="EikRMOJNgaciuxQQeeB3-4" target="EikRMOJNgaciuxQQeeB3-9">
          <mxGeometry relative="1" as="geometry" />
        </mxCell>
        <mxCell id="EikRMOJNgaciuxQQeeB3-14" style="edgeStyle=orthogonalEdgeStyle;rounded=0;orthogonalLoop=1;jettySize=auto;html=1;entryX=0.46;entryY=0.939;entryDx=0;entryDy=0;entryPerimeter=0;" edge="1" parent="1" source="EikRMOJNgaciuxQQeeB3-4" target="EikRMOJNgaciuxQQeeB3-11">
          <mxGeometry relative="1" as="geometry" />
        </mxCell>
        <mxCell id="EikRMOJNgaciuxQQeeB3-4" value="" style="rhombus;whiteSpace=wrap;html=1;fillColor=#f8cecc;strokeColor=#b85450;" vertex="1" parent="1">
          <mxGeometry x="270" y="670" width="60" height="60" as="geometry" />
        </mxCell>
        <mxCell id="EikRMOJNgaciuxQQeeB3-5" value="&lt;font style=&quot;font-size: 16px;&quot;&gt;Login to the Application.&lt;/font&gt;" style="text;html=1;strokeColor=none;fillColor=none;align=center;verticalAlign=middle;whiteSpace=wrap;rounded=0;" vertex="1" parent="1">
          <mxGeometry x="310" y="660" width="190" height="30" as="geometry" />
        </mxCell>
        <mxCell id="EikRMOJNgaciuxQQeeB3-9" value="&lt;font style=&quot;font-size: 18px;&quot;&gt;Logged In to Interface for shopping&lt;/font&gt;" style="rounded=1;whiteSpace=wrap;html=1;fillColor=#dae8fc;strokeColor=#6c8ebf;" vertex="1" parent="1">
          <mxGeometry x="160" y="940" width="280" height="60" as="geometry" />
        </mxCell>
        <mxCell id="EikRMOJNgaciuxQQeeB3-15" style="edgeStyle=orthogonalEdgeStyle;rounded=0;orthogonalLoop=1;jettySize=auto;html=1;" edge="1" parent="1" source="EikRMOJNgaciuxQQeeB3-11">
          <mxGeometry relative="1" as="geometry">
            <mxPoint x="520" y="700" as="targetPoint" />
          </mxGeometry>
        </mxCell>
        <mxCell id="EikRMOJNgaciuxQQeeB3-11" value="&lt;font style=&quot;font-size: 18px;&quot;&gt;Signup to the Application database&lt;/font&gt;" style="rounded=1;whiteSpace=wrap;html=1;fillColor=#dae8fc;strokeColor=#6c8ebf;" vertex="1" parent="1">
          <mxGeometry x="170" y="400" width="280" height="60" as="geometry" />
        </mxCell>
        <mxCell id="EikRMOJNgaciuxQQeeB3-12" value="&lt;font style=&quot;font-size: 16px;&quot;&gt;Login Successful.&lt;/font&gt;" style="text;html=1;strokeColor=none;fillColor=none;align=center;verticalAlign=middle;whiteSpace=wrap;rounded=0;" vertex="1" parent="1">
          <mxGeometry x="310" y="830" width="150" height="30" as="geometry" />
        </mxCell>
        <mxCell id="EikRMOJNgaciuxQQeeB3-16" value="&lt;font style=&quot;font-size: 16px;&quot;&gt;Your Account doesn&#39;t exist.&lt;/font&gt;" style="text;html=1;strokeColor=none;fillColor=none;align=center;verticalAlign=middle;whiteSpace=wrap;rounded=0;rotation=0;" vertex="1" parent="1">
          <mxGeometry x="275" y="510" width="150" height="30" as="geometry" />
        </mxCell>
        <mxCell id="EikRMOJNgaciuxQQeeB3-27" style="edgeStyle=orthogonalEdgeStyle;rounded=0;orthogonalLoop=1;jettySize=auto;html=1;entryX=0.46;entryY=0.117;entryDx=0;entryDy=0;entryPerimeter=0;" edge="1" parent="1" source="EikRMOJNgaciuxQQeeB3-19" target="EikRMOJNgaciuxQQeeB3-26">
          <mxGeometry relative="1" as="geometry" />
        </mxCell>
        <mxCell id="EikRMOJNgaciuxQQeeB3-29" style="edgeStyle=orthogonalEdgeStyle;rounded=0;orthogonalLoop=1;jettySize=auto;html=1;entryX=0.446;entryY=0.928;entryDx=0;entryDy=0;entryPerimeter=0;" edge="1" parent="1" source="EikRMOJNgaciuxQQeeB3-19" target="EikRMOJNgaciuxQQeeB3-28">
          <mxGeometry relative="1" as="geometry" />
        </mxCell>
        <mxCell id="EikRMOJNgaciuxQQeeB3-38" style="edgeStyle=orthogonalEdgeStyle;rounded=0;orthogonalLoop=1;jettySize=auto;html=1;" edge="1" parent="1" source="EikRMOJNgaciuxQQeeB3-19">
          <mxGeometry relative="1" as="geometry">
            <mxPoint x="-350" y="700" as="targetPoint" />
          </mxGeometry>
        </mxCell>
        <mxCell id="EikRMOJNgaciuxQQeeB3-19" value="" style="rhombus;whiteSpace=wrap;html=1;fillColor=#f8cecc;strokeColor=#b85450;" vertex="1" parent="1">
          <mxGeometry x="-80" y="670" width="60" height="60" as="geometry" />
        </mxCell>
        <mxCell id="EikRMOJNgaciuxQQeeB3-23" value="" style="endArrow=classic;html=1;rounded=0;exitX=0.469;exitY=-0.061;exitDx=0;exitDy=0;exitPerimeter=0;entryX=1;entryY=0.5;entryDx=0;entryDy=0;" edge="1" parent="1" source="EikRMOJNgaciuxQQeeB3-9" target="EikRMOJNgaciuxQQeeB3-19">
          <mxGeometry width="50" height="50" relative="1" as="geometry">
            <mxPoint x="210" y="730" as="sourcePoint" />
            <mxPoint y="710" as="targetPoint" />
            <Array as="points">
              <mxPoint y="700" />
            </Array>
          </mxGeometry>
        </mxCell>
        <mxCell id="EikRMOJNgaciuxQQeeB3-25" value="&lt;font style=&quot;font-size: 16px;&quot;&gt;Browse Product.&lt;/font&gt;" style="text;html=1;strokeColor=none;fillColor=none;align=center;verticalAlign=middle;whiteSpace=wrap;rounded=0;" vertex="1" parent="1">
          <mxGeometry x="100" y="770" width="180" height="30" as="geometry" />
        </mxCell>
        <mxCell id="EikRMOJNgaciuxQQeeB3-26" value="&lt;font style=&quot;font-size: 18px;&quot;&gt;Product Selected&lt;/font&gt;" style="rounded=1;whiteSpace=wrap;html=1;fillColor=#dae8fc;strokeColor=#6c8ebf;" vertex="1" parent="1">
          <mxGeometry x="-150" y="940" width="220" height="60" as="geometry" />
        </mxCell>
        <mxCell id="EikRMOJNgaciuxQQeeB3-60" style="edgeStyle=orthogonalEdgeStyle;rounded=0;orthogonalLoop=1;jettySize=auto;html=1;entryX=0.5;entryY=0;entryDx=0;entryDy=0;" edge="1" parent="1" source="EikRMOJNgaciuxQQeeB3-28" target="EikRMOJNgaciuxQQeeB3-30">
          <mxGeometry relative="1" as="geometry">
            <Array as="points">
              <mxPoint x="-35" y="280" />
              <mxPoint x="-840" y="280" />
            </Array>
          </mxGeometry>
        </mxCell>
        <mxCell id="EikRMOJNgaciuxQQeeB3-28" value="&lt;font style=&quot;font-size: 18px;&quot;&gt;Product Not Available&lt;/font&gt;" style="rounded=1;whiteSpace=wrap;html=1;fillColor=#dae8fc;strokeColor=#6c8ebf;" vertex="1" parent="1">
          <mxGeometry x="-170" y="400" width="270" height="60" as="geometry" />
        </mxCell>
        <mxCell id="EikRMOJNgaciuxQQeeB3-30" value="&lt;font style=&quot;font-size: 16px;&quot;&gt;END&lt;/font&gt;" style="ellipse;whiteSpace=wrap;html=1;aspect=fixed;fillColor=#2EE84D;strokeColor=#82b366;" vertex="1" parent="1">
          <mxGeometry x="-880" y="460" width="80" height="80" as="geometry" />
        </mxCell>
        <mxCell id="EikRMOJNgaciuxQQeeB3-32" value="&lt;font style=&quot;font-size: 16px;&quot;&gt;Have a research on the product.&lt;/font&gt;" style="text;html=1;strokeColor=none;fillColor=none;align=center;verticalAlign=middle;whiteSpace=wrap;rounded=0;" vertex="1" parent="1">
          <mxGeometry x="-30" y="820" width="170" height="30" as="geometry" />
        </mxCell>
        <mxCell id="EikRMOJNgaciuxQQeeB3-33" value="&lt;font style=&quot;font-size: 16px;&quot;&gt;Findout the product.&lt;/font&gt;" style="text;html=1;strokeColor=none;fillColor=none;align=center;verticalAlign=middle;whiteSpace=wrap;rounded=0;" vertex="1" parent="1">
          <mxGeometry x="-60" y="600" width="130" height="30" as="geometry" />
        </mxCell>
        <mxCell id="EikRMOJNgaciuxQQeeB3-42" style="edgeStyle=orthogonalEdgeStyle;rounded=0;orthogonalLoop=1;jettySize=auto;html=1;entryX=0.456;entryY=-0.017;entryDx=0;entryDy=0;entryPerimeter=0;" edge="1" parent="1" source="EikRMOJNgaciuxQQeeB3-34" target="EikRMOJNgaciuxQQeeB3-40">
          <mxGeometry relative="1" as="geometry" />
        </mxCell>
        <mxCell id="EikRMOJNgaciuxQQeeB3-47" style="edgeStyle=orthogonalEdgeStyle;rounded=0;orthogonalLoop=1;jettySize=auto;html=1;entryX=0.5;entryY=1;entryDx=0;entryDy=0;" edge="1" parent="1" source="EikRMOJNgaciuxQQeeB3-34" target="EikRMOJNgaciuxQQeeB3-45">
          <mxGeometry relative="1" as="geometry" />
        </mxCell>
        <mxCell id="EikRMOJNgaciuxQQeeB3-53" style="edgeStyle=orthogonalEdgeStyle;rounded=0;orthogonalLoop=1;jettySize=auto;html=1;" edge="1" parent="1" source="EikRMOJNgaciuxQQeeB3-34" target="EikRMOJNgaciuxQQeeB3-52">
          <mxGeometry relative="1" as="geometry" />
        </mxCell>
        <mxCell id="EikRMOJNgaciuxQQeeB3-34" value="" style="rhombus;whiteSpace=wrap;html=1;fillColor=#f8cecc;strokeColor=#b85450;" vertex="1" parent="1">
          <mxGeometry x="-420" y="670" width="60" height="60" as="geometry" />
        </mxCell>
        <mxCell id="EikRMOJNgaciuxQQeeB3-35" value="" style="endArrow=classic;html=1;rounded=0;" edge="1" parent="1">
          <mxGeometry width="50" height="50" relative="1" as="geometry">
            <mxPoint x="-51" y="940" as="sourcePoint" />
            <mxPoint x="-360" y="700" as="targetPoint" />
          </mxGeometry>
        </mxCell>
        <mxCell id="EikRMOJNgaciuxQQeeB3-39" value="&lt;font style=&quot;font-size: 16px;&quot;&gt;Selected via Links&lt;/font&gt;" style="text;html=1;strokeColor=none;fillColor=none;align=center;verticalAlign=middle;whiteSpace=wrap;rounded=0;" vertex="1" parent="1">
          <mxGeometry x="-250" y="710" width="150" height="30" as="geometry" />
        </mxCell>
        <mxCell id="EikRMOJNgaciuxQQeeB3-57" style="edgeStyle=orthogonalEdgeStyle;rounded=0;orthogonalLoop=1;jettySize=auto;html=1;entryX=0.423;entryY=1.039;entryDx=0;entryDy=0;entryPerimeter=0;" edge="1" parent="1" source="EikRMOJNgaciuxQQeeB3-40" target="EikRMOJNgaciuxQQeeB3-52">
          <mxGeometry relative="1" as="geometry">
            <Array as="points">
              <mxPoint x="-380" y="1090" />
              <mxPoint x="-825" y="1090" />
            </Array>
          </mxGeometry>
        </mxCell>
        <mxCell id="EikRMOJNgaciuxQQeeB3-40" value="&lt;font style=&quot;font-size: 18px;&quot;&gt;Payment Accepted&amp;nbsp;&lt;/font&gt;" style="rounded=1;whiteSpace=wrap;html=1;fillColor=#dae8fc;strokeColor=#6c8ebf;" vertex="1" parent="1">
          <mxGeometry x="-480" y="940" width="200" height="60" as="geometry" />
        </mxCell>
        <mxCell id="EikRMOJNgaciuxQQeeB3-56" style="edgeStyle=orthogonalEdgeStyle;rounded=0;orthogonalLoop=1;jettySize=auto;html=1;" edge="1" parent="1" source="EikRMOJNgaciuxQQeeB3-41">
          <mxGeometry relative="1" as="geometry">
            <mxPoint x="-600" y="1090" as="targetPoint" />
          </mxGeometry>
        </mxCell>
        <mxCell id="EikRMOJNgaciuxQQeeB3-41" value="&lt;font style=&quot;font-size: 18px;&quot;&gt;Payment Via&amp;nbsp; COD&lt;/font&gt;" style="rounded=1;whiteSpace=wrap;html=1;fillColor=#dae8fc;strokeColor=#6c8ebf;" vertex="1" parent="1">
          <mxGeometry x="-690" y="940" width="180" height="60" as="geometry" />
        </mxCell>
        <mxCell id="EikRMOJNgaciuxQQeeB3-43" value="" style="endArrow=classic;html=1;rounded=0;entryX=0.5;entryY=0;entryDx=0;entryDy=0;exitX=0.5;exitY=1;exitDx=0;exitDy=0;" edge="1" parent="1" source="EikRMOJNgaciuxQQeeB3-34" target="EikRMOJNgaciuxQQeeB3-41">
          <mxGeometry width="50" height="50" relative="1" as="geometry">
            <mxPoint x="-690" y="810" as="sourcePoint" />
            <mxPoint x="-640" y="760" as="targetPoint" />
          </mxGeometry>
        </mxCell>
        <mxCell id="EikRMOJNgaciuxQQeeB3-50" style="edgeStyle=orthogonalEdgeStyle;rounded=0;orthogonalLoop=1;jettySize=auto;html=1;" edge="1" parent="1" source="EikRMOJNgaciuxQQeeB3-45">
          <mxGeometry relative="1" as="geometry">
            <mxPoint x="-390" y="280" as="targetPoint" />
          </mxGeometry>
        </mxCell>
        <mxCell id="EikRMOJNgaciuxQQeeB3-45" value="&lt;font style=&quot;font-size: 18px;&quot;&gt;Payment Rejected&amp;nbsp;&lt;/font&gt;" style="rounded=1;whiteSpace=wrap;html=1;fillColor=#dae8fc;strokeColor=#6c8ebf;" vertex="1" parent="1">
          <mxGeometry x="-490" y="400" width="200" height="60" as="geometry" />
        </mxCell>
        <mxCell id="EikRMOJNgaciuxQQeeB3-46" value="&lt;font style=&quot;font-size: 16px;&quot;&gt;Validation process of Credit card&lt;/font&gt;" style="text;html=1;strokeColor=none;fillColor=none;align=center;verticalAlign=middle;whiteSpace=wrap;rounded=0;" vertex="1" parent="1">
          <mxGeometry x="-390" y="840" width="170" height="30" as="geometry" />
        </mxCell>
        <mxCell id="EikRMOJNgaciuxQQeeB3-48" value="&lt;font style=&quot;font-size: 16px;&quot;&gt;Validation process of Credit card&lt;/font&gt;" style="text;html=1;strokeColor=none;fillColor=none;align=center;verticalAlign=middle;whiteSpace=wrap;rounded=0;" vertex="1" parent="1">
          <mxGeometry x="-390" y="600" width="170" height="30" as="geometry" />
        </mxCell>
        <mxCell id="EikRMOJNgaciuxQQeeB3-58" style="edgeStyle=orthogonalEdgeStyle;rounded=0;orthogonalLoop=1;jettySize=auto;html=1;entryX=0.633;entryY=1.021;entryDx=0;entryDy=0;entryPerimeter=0;" edge="1" parent="1" source="EikRMOJNgaciuxQQeeB3-52" target="EikRMOJNgaciuxQQeeB3-30">
          <mxGeometry relative="1" as="geometry">
            <Array as="points">
              <mxPoint x="-830" y="542" />
            </Array>
          </mxGeometry>
        </mxCell>
        <mxCell id="EikRMOJNgaciuxQQeeB3-52" value="&lt;font style=&quot;font-size: 18px;&quot;&gt;Order Accepted&lt;/font&gt;" style="rounded=1;whiteSpace=wrap;html=1;fillColor=#dae8fc;strokeColor=#6c8ebf;" vertex="1" parent="1">
          <mxGeometry x="-910" y="670" width="200" height="60" as="geometry" />
        </mxCell>
        <mxCell id="EikRMOJNgaciuxQQeeB3-62" value="&lt;font style=&quot;font-size: 16px;&quot;&gt;Close&lt;/font&gt;" style="text;html=1;strokeColor=none;fillColor=none;align=center;verticalAlign=middle;whiteSpace=wrap;rounded=0;" vertex="1" parent="1">
          <mxGeometry x="-820" y="600" width="60" height="30" as="geometry" />
        </mxCell>
        <mxCell id="EikRMOJNgaciuxQQeeB3-64" value="&lt;font style=&quot;font-size: 16px;&quot;&gt;Close&lt;/font&gt;" style="text;html=1;strokeColor=none;fillColor=none;align=center;verticalAlign=middle;whiteSpace=wrap;rounded=0;" vertex="1" parent="1">
          <mxGeometry x="-540" y="680" width="60" height="30" as="geometry" />
        </mxCell>
        <mxCell id="EikRMOJNgaciuxQQeeB3-65" value="&lt;font style=&quot;font-size: 16px;&quot;&gt;Close&lt;/font&gt;" style="text;html=1;strokeColor=none;fillColor=none;align=center;verticalAlign=middle;whiteSpace=wrap;rounded=0;" vertex="1" parent="1">
          <mxGeometry x="-820" y="390" width="60" height="30" as="geometry" />
        </mxCell>
      </root>
    </mxGraphModel>
  </diagram>
</mxfile>
